# xmcd
#
# Track frame offsets: 
#        180
#        13620
#        25249
#        37719
#        51868
#        61238
#        72130
#        81410
#        96123
#        109803
#        120620
#        132849
#        143866
#        157347
#
# Disc length: 2243 seconds
#
# Revision: 1
# Processed by: cddbd v1.5.2PL0 Copyright (c) Steve Scherf et al.
# Submitted via: ExactAudioCopy v1.1
#
DISCID=bb08c10e
DTITLE=Various Artist - Spotlite On Apollo Records - Volume 3
DYEAR=1996
DGENRE=R&B
TTITLE0=The Gentlemen - Tired Of You (mono)
TTITLE1=The Casanovas - Hush-A-Mecca (mono)
TTITLE2=The Cellos - The Be-Bop Mouse (mono)
TTITLE3=The Larks (Apollo) - I Live True To You (mono)
TTITLE4=The Vocaltones - I'm Gonna Get That Girl (mono)
TTITLE5=The Casanovas - Please Be Mine (mono)
TTITLE6=The Charmers (R&B) - The Mambo (mono)
TTITLE7=Billy Austin and The Hearts - The Night Has Come (mono)
TTITLE8=The '5' Royales - Too Much Lovin' (mono)
TTITLE9=The Cellos - I Beg For Your Love (mono)
TTITLE10=The Romeos - I Beg You Please (mono)
TTITLE11=The Sparks Of Rhythm featuring Jimmy Jones - Don't Love You A
TTITLE11=nymore (mono)
TTITLE12=The Gentlemen - Don't Leave Me Baby (mono)
TTITLE13=The Keynotes - Bye Bye Baby (mono)
EXTD=
EXTT0=
EXTT1=
EXTT2=
EXTT3=
EXTT4=
EXTT5=
EXTT6=
EXTT7=
EXTT8=
EXTT9=
EXTT10=
EXTT11=
EXTT12=
EXTT13=
PLAYORDER=
